<svg width="452" height="455" viewBox="0 0 452 455" fill="none" xmlns="http://www.w3.org/2000/svg">
<mask id="path-1-inside-1" fill="white">
<path fill-rule="evenodd" clip-rule="evenodd" d="M444.866 189.256L239.123 5.09777C231.529 -1.69925 220.039 -1.69926 212.445 5.09776L6.70143 189.256C-6.97614 201.499 1.68378 224.158 20.0402 224.158H39.7839V415.158H167V435C167 446.046 175.954 455 187 455H265C276.046 455 285 446.046 285 435V415.158H411.784V224.158H431.527C449.884 224.158 458.544 201.499 444.866 189.256ZM285 415.158V320C285 308.954 276.046 300 265 300H187C175.954 300 167 308.954 167 320V415.158H285Z"/>
</mask>
<path fill-rule="evenodd" clip-rule="evenodd" d="M444.866 189.256L239.123 5.09777C231.529 -1.69925 220.039 -1.69926 212.445 5.09776L6.70143 189.256C-6.97614 201.499 1.68378 224.158 20.0402 224.158H39.7839V415.158H167V435C167 446.046 175.954 455 187 455H265C276.046 455 285 446.046 285 435V415.158H411.784V224.158H431.527C449.884 224.158 458.544 201.499 444.866 189.256ZM285 415.158V320C285 308.954 276.046 300 265 300H187C175.954 300 167 308.954 167 320V415.158H285Z" fill="#E4FFE3"/>
<path d="M411.784 224.158V229.158H416.784V224.158H411.784ZM39.7839 224.158H34.7839V229.158H39.7839V224.158ZM406.784 223.158V224.158H416.784V223.158H406.784ZM44.7839 224.158V223.158H34.7839V224.158H44.7839ZM411.784 219.158H225.784V229.158H411.784V219.158ZM225.784 219.158H39.7839V229.158H225.784V219.158ZM239.123 5.09777L245.792 -2.35335V-2.35335L239.123 5.09777ZM444.866 189.256L438.197 196.707L444.866 189.256ZM212.445 5.09776L205.776 -2.35336V-2.35336L212.445 5.09776ZM6.70143 189.256L13.3708 196.707L6.70143 189.256ZM39.7839 224.158H49.7839V214.158H39.7839V224.158ZM39.7839 415.158H29.7839V425.158H39.7839V415.158ZM411.784 415.158V425.158H421.784V415.158H411.784ZM411.784 224.158V214.158H401.784V224.158H411.784ZM232.453 12.5489L438.197 196.707L451.536 181.805L245.792 -2.35335L232.453 12.5489ZM219.114 12.5489C222.911 9.15037 228.656 9.15037 232.453 12.5489L245.792 -2.35335C234.401 -12.5489 217.166 -12.5489 205.776 -2.35336L219.114 12.5489ZM13.3708 196.707L219.114 12.5489L205.776 -2.35336L0.0320362 181.805L13.3708 196.707ZM20.0402 214.158C10.862 214.158 6.53201 202.829 13.3708 196.707L0.0320367 181.805C-20.4843 200.169 -7.49447 234.158 20.0402 234.158V214.158ZM39.7839 214.158H20.0402V234.158H39.7839V214.158ZM49.7839 415.158V224.158H29.7839V415.158H49.7839ZM167 405.158H39.7839V425.158H167V405.158ZM177 435V415.158H157V435H177ZM187 445C181.477 445 177 440.523 177 435H157C157 451.569 170.431 465 187 465V445ZM265 445H187V465H265V445ZM275 435C275 440.523 270.523 445 265 445V465C281.569 465 295 451.569 295 435H275ZM275 415.158V435H295V415.158H275ZM411.784 405.158H285V425.158H411.784V405.158ZM401.784 224.158V415.158H421.784V224.158H401.784ZM431.527 214.158H411.784V234.158H431.527V214.158ZM438.197 196.707C445.036 202.829 440.706 214.158 431.527 214.158V234.158C459.062 234.158 472.052 200.169 451.536 181.805L438.197 196.707ZM275 320V415.158H295V320H275ZM265 310C270.523 310 275 314.477 275 320H295C295 303.431 281.569 290 265 290V310ZM187 310H265V290H187V310ZM177 320C177 314.477 181.477 310 187 310V290C170.431 290 157 303.431 157 320H177ZM177 415.158V320H157V415.158H177ZM285 405.158H167V425.158H285V405.158Z" fill="white" mask="url(#path-1-inside-1)"/>
</svg>
