<?xml version="1.0" standalone="no"?>
<!DOCTYPE svg PUBLIC "-//W3C//DTD SVG 20010904//EN"
 "http://www.w3.org/TR/2001/REC-SVG-20010904/DTD/svg10.dtd">
<svg version="1.0" xmlns="http://www.w3.org/2000/svg"
 width="300.000000pt" height="256.000000pt" viewBox="0 0 300.000000 256.000000"
 preserveAspectRatio="xMidYMid meet">
<metadata>
Created by potrace 1.10, written by Peter Selinger 2001-2011
</metadata>
<g transform="translate(0.000000,256.000000) scale(0.100000,-0.100000)"
fill="#000000" stroke="none">
<path d="M2407 2512 c-26 -29 -38 -73 -39 -143 0 -76 20 -169 38 -169 37 0
175 79 232 133 37 35 42 75 14 100 -23 21 -101 22 -128 2 -28 -21 -34 -18 -34
18 0 63 -48 98 -83 59z m51 -4 c7 -7 12 -36 12 -65 0 -29 2 -53 5 -53 3 0 18
9 34 21 40 30 106 37 131 14 11 -10 20 -26 20 -36 0 -26 -81 -92 -170 -139
l-80 -41 -11 28 c-30 76 -20 221 19 266 18 20 24 21 40 5z"/>
<path d="M791 2475 c-17 -20 -31 -44 -31 -55 0 -17 -5 -16 -50 12 -41 25 -52
29 -65 18 -49 -41 28 -153 163 -237 l50 -31 5 32 c3 17 10 51 16 76 14 62 13
160 -2 190 -19 38 -49 37 -86 -5z m70 9 c18 -22 17 -153 -1 -220 -7 -27 -14
-51 -16 -52 -1 -2 -26 12 -56 31 -93 59 -168 161 -139 190 12 12 62 -7 87 -34
23 -26 34 -24 34 6 0 23 53 95 70 95 4 0 14 -7 21 -16z"/>
<path d="M1490 2480 c-95 -27 -152 -54 -217 -102 -113 -83 -210 -196 -295
-343 -23 -38 -43 -72 -45 -74 -2 -3 -10 5 -19 17 -8 12 -21 19 -29 16 -11 -5
-15 2 -15 24 0 37 -34 66 -60 52 -9 -5 -27 -6 -38 -3 -12 3 -28 0 -36 -6 -11
-9 -16 -9 -23 1 -4 7 -26 19 -47 27 -34 12 -40 11 -47 -1 -5 -9 -18 -14 -32
-11 -29 6 -44 -12 -93 -107 -21 -41 -57 -94 -80 -116 -52 -52 -72 -90 -135
-262 -28 -76 -64 -162 -81 -192 -70 -123 -88 -164 -88 -195 0 -21 -9 -40 -29
-59 -16 -15 -36 -45 -46 -66 -17 -37 -17 -41 1 -92 13 -39 19 -82 19 -160 0
-103 1 -108 28 -136 45 -47 167 -89 324 -113 67 -10 76 -14 115 -55 24 -25 59
-49 79 -56 35 -10 37 -14 41 -55 2 -35 -3 -54 -24 -89 -33 -52 -33 -54 -10
-54 11 0 25 12 32 28 13 26 14 23 21 -53 6 -66 4 -90 -12 -137 -10 -32 -19
-67 -19 -79 l0 -22 717 6 717 5 17 24 c10 13 23 43 29 67 18 72 56 137 87 149
15 6 69 14 118 17 74 5 101 12 150 37 103 53 278 119 330 125 78 9 96 30 119
140 8 39 26 93 40 121 32 63 32 77 3 133 -19 34 -25 68 -31 149 -4 58 -15 157
-25 220 -11 63 -19 163 -20 222 -2 139 -17 188 -79 252 -45 46 -51 59 -72 142
-27 114 -50 154 -87 154 -21 0 -33 8 -45 30 -19 34 -42 39 -59 12 -8 -12 -20
-17 -39 -14 -15 2 -30 -1 -34 -6 -4 -6 -22 -8 -42 -5 -30 5 -36 3 -41 -16 -6
-25 -7 -25 -33 -9 -15 10 -23 9 -40 -7 -13 -11 -18 -25 -14 -37 3 -11 0 -18
-8 -18 -8 0 -19 28 -30 75 -9 41 -38 118 -63 171 -75 155 -212 276 -345 303
-25 6 -72 19 -104 30 -73 26 -166 26 -256 1z m262 -20 c20 -7 35 -16 33 -19
-2 -3 14 -7 35 -8 47 -3 155 -45 155 -60 0 -6 4 -15 9 -20 5 -5 6 -3 2 5 -4 6
-3 12 2 12 15 0 33 -26 24 -36 -4 -5 -3 -6 2 -2 4 4 14 2 22 -5 7 -7 21 -18
29 -26 9 -7 14 -19 11 -27 -3 -8 -2 -13 2 -13 22 4 34 -5 61 -45 17 -24 40
-72 51 -107 12 -35 24 -71 27 -79 3 -8 8 -26 10 -40 2 -14 8 -26 14 -28 5 -2
4 -12 -2 -24 -8 -15 -8 -19 0 -14 7 4 11 -1 11 -13 0 -12 4 -21 9 -21 4 0 11
-42 15 -92 9 -110 8 -108 2 -133 -2 -11 -5 -24 -7 -30 -1 -5 -5 4 -9 20 -6 22
-6 20 -2 -10 3 -22 6 -72 6 -112 1 -39 4 -69 7 -67 4 2 10 -3 13 -12 4 -10 2
-13 -7 -8 -6 4 -3 -3 7 -15 20 -22 20 -22 0 -15 -16 6 -17 5 -6 -7 16 -18 15
-32 -2 -26 -15 6 -36 -38 -36 -75 0 -22 -30 -78 -42 -78 -24 0 -97 192 -85
224 3 7 -2 21 -10 31 -13 18 -14 15 -7 -30 4 -27 11 -60 15 -73 16 -41 9 -48
-11 -12 -11 19 -19 29 -20 22 0 -7 22 -45 48 -85 27 -40 57 -90 67 -111 10
-21 26 -41 36 -43 10 -3 20 -12 23 -20 3 -7 2 -12 -3 -9 -5 3 2 -20 15 -52 13
-31 24 -67 24 -79 0 -13 5 -23 11 -23 5 0 17 -17 26 -38 18 -41 24 -200 9
-242 -6 -20 -6 -23 4 -13 27 25 23 191 -5 266 -4 10 -2 17 4 17 6 0 12 -8 12
-17 1 -16 2 -16 6 -1 2 9 11 19 19 22 11 4 14 -7 14 -55 0 -51 5 -67 31 -105
57 -83 161 -180 258 -238 101 -62 149 -85 89 -42 -20 14 -40 26 -43 26 -19 0
-163 111 -212 164 -101 109 -113 131 -113 202 0 39 5 68 13 76 8 7 12 27 10
43 -2 17 -4 42 -4 58 0 15 -4 27 -8 27 -10 0 -22 41 -27 90 -8 98 -18 158 -30
193 -8 23 -11 54 -7 75 3 20 6 42 6 48 0 7 38 17 91 24 49 7 106 18 126 25 45
16 127 71 140 94 5 10 19 21 31 24 11 3 18 3 15 0 -3 -4 6 -15 21 -25 16 -10
25 -18 21 -18 -5 0 1 -9 12 -20 12 -12 18 -26 14 -32 -4 -6 -3 -8 4 -4 21 13
32 -59 38 -244 5 -156 6 -170 15 -164 4 2 10 -22 14 -54 14 -103 14 -123 2
-115 -7 4 -8 0 -2 -13 4 -10 10 -32 13 -48 7 -41 -12 -26 -48 37 -16 29 -30
48 -30 42 0 -5 12 -30 26 -55 117 -203 122 -229 56 -312 -8 -9 -12 -20 -9 -25
7 -11 -28 -150 -42 -166 -5 -7 -27 -14 -48 -15 -21 -1 -60 -10 -88 -19 -62
-20 -253 -100 -280 -117 -23 -15 -85 -31 -100 -27 -13 4 -17 4 -95 -9 -36 -6
-72 -11 -81 -12 -9 -1 -15 -8 -12 -14 6 -16 -114 -97 -129 -88 -6 4 -8 3 -5
-3 6 -10 -109 -95 -168 -123 -25 -12 -132 -15 -617 -18 l-588 -4 0 26 c0 13 5
28 10 31 6 4 9 14 8 23 -2 9 2 16 8 15 8 -2 11 17 8 60 -8 129 -16 163 -36
151 -6 -4 -6 2 1 15 13 23 26 29 18 8 -3 -8 3 -14 14 -14 38 -3 86 27 136 85
36 40 82 77 145 115 l93 56 29 -37 c59 -73 229 -222 241 -210 2 2 -27 27 -65
56 -65 50 -190 175 -190 190 0 4 18 20 40 35 l40 28 61 -45 c34 -25 69 -46 79
-46 10 0 20 -7 24 -15 4 -10 20 -15 50 -15 25 0 56 -5 70 -11 19 -9 40 -9 83
0 66 13 108 33 218 106 44 29 112 67 150 85 39 17 89 41 112 52 23 11 44 18
47 16 2 -2 12 4 22 13 11 8 31 20 45 26 25 11 26 10 37 -39 7 -27 12 -78 12
-113 0 -54 -4 -68 -26 -94 -24 -29 -24 -31 -6 -31 11 0 34 16 50 35 30 33 39
61 44 135 l3 35 30 -49 c30 -51 37 -97 22 -150 l-8 -29 26 17 c27 18 27 18 20
-6 -4 -12 -21 -53 -39 -91 -18 -37 -29 -67 -26 -67 9 0 65 116 80 166 10 32
10 46 1 60 -10 16 -11 14 -7 -16 3 -19 3 -29 0 -22 -5 10 -9 9 -20 -5 -13 -16
-14 -14 -8 19 8 46 -9 98 -54 166 -19 28 -35 52 -36 52 -1 0 0 -33 2 -72 2
-61 -1 -79 -20 -112 -13 -22 -29 -41 -36 -44 -10 -3 -9 3 3 22 24 36 16 176
-15 261 -24 68 -93 213 -83 175 17 -67 -17 -168 -76 -224 -17 -16 -28 -32 -26
-36 2 -3 -35 -24 -83 -45 -48 -21 -110 -55 -137 -76 -122 -88 -240 -132 -299
-109 -15 5 -45 10 -67 10 -28 0 -42 6 -51 20 -7 11 -22 20 -34 20 -12 0 -43
17 -70 39 -27 21 -60 44 -74 51 -22 12 -24 12 -12 -2 13 -17 -4 -29 -187 -135
-57 -32 -99 -67 -134 -107 -28 -32 -67 -65 -85 -73 -31 -13 -35 -12 -48 4 -18
25 -18 30 11 79 31 54 80 87 215 149 173 79 211 97 206 102 -2 2 -18 -3 -35
-11 -16 -9 -34 -16 -38 -16 -9 0 -45 81 -39 88 3 2 21 -8 41 -23 19 -15 38
-26 40 -23 3 3 -22 24 -55 47 -32 23 -75 61 -93 84 -64 78 -120 216 -132 321
l-5 54 54 -29 c42 -23 57 -38 66 -63 15 -46 84 -143 131 -184 21 -18 49 -53
63 -77 28 -46 85 -100 95 -89 3 4 0 9 -7 11 -25 9 -62 50 -77 86 -8 20 -31 48
-50 63 -38 29 -125 139 -125 157 0 7 16 -6 36 -28 70 -79 144 -154 144 -146 0
13 -172 191 -181 186 -4 -3 -12 10 -18 28 -9 26 -23 39 -61 57 -28 13 -50 27
-50 32 0 5 9 4 19 -2 11 -5 26 -10 33 -10 7 0 0 7 -15 15 -16 8 -33 14 -39 12
-22 -4 -39 47 -35 110 2 50 9 70 37 112 19 27 37 48 41 45 4 -2 5 4 3 13 -5
17 9 36 159 220 31 38 57 73 57 77 0 15 -19 4 -25 -14 -4 -12 -11 -17 -18 -14
-7 4 -9 4 -6 0 4 -4 -14 -28 -40 -53 -25 -25 -38 -40 -28 -33 28 21 19 -4 -13
-35 l-30 -29 11 32 c6 18 9 35 7 38 -3 2 -11 -17 -18 -43 -7 -26 -17 -54 -23
-60 -16 -22 -29 -2 -24 36 4 22 3 30 -2 21 -5 -8 -12 -43 -16 -77 -4 -34 -13
-70 -22 -80 -13 -16 -14 -14 -7 22 4 22 8 53 7 68 0 21 2 25 9 15 7 -9 8 -7 4
7 -16 58 -10 93 26 146 50 77 67 111 74 158 4 23 11 41 15 41 5 0 19 20 31 44
12 25 30 47 41 50 16 4 18 8 9 19 -9 11 -2 26 32 73 64 87 172 198 185 189 7
-3 10 -1 9 6 -6 28 155 113 237 125 28 4 28 3 5 -5 -64 -22 -142 -62 -167 -85
-15 -14 -22 -26 -16 -26 7 0 14 4 18 10 3 5 12 7 21 3 9 -3 14 0 12 8 -3 14
101 71 114 63 5 -3 8 0 8 5 0 6 3 10 8 9 12 -2 42 14 38 21 -8 12 179 5 216
-9z m-1097 -381 c10 -16 -4 -59 -19 -59 -19 0 -25 20 -15 48 9 24 24 29 34 11z
m55 -23 c8 -11 18 -12 36 -6 19 8 26 6 31 -6 8 -21 -14 -116 -32 -140 -30 -39
-41 28 -19 109 3 9 1 17 -5 17 -5 0 -13 -24 -16 -53 -8 -65 -19 -87 -35 -71
-20 20 -23 87 -7 127 17 40 28 45 47 23z m-110 -15 c0 -11 4 -22 9 -25 4 -3
11 -25 15 -48 7 -44 42 -92 58 -82 6 4 21 1 34 -6 19 -11 26 -11 39 0 8 7 15
19 15 27 0 10 6 13 16 9 9 -4 23 -1 32 6 8 7 17 12 19 11 1 -2 2 -1 1 0 -7 9
26 36 35 30 7 -4 20 -8 29 -8 10 -1 21 -5 25 -8 12 -13 -18 -85 -67 -162 -42
-64 -50 -82 -45 -108 6 -31 -2 -58 -86 -287 -13 -36 -34 -79 -46 -97 -13 -17
-23 -35 -23 -39 0 -4 -20 -39 -44 -78 -60 -97 -101 -176 -125 -242 -31 -82
-25 -90 8 -9 15 39 34 83 43 99 l16 30 11 -53 c6 -28 11 -64 11 -79 0 -40 -40
-118 -99 -195 -29 -38 -51 -71 -48 -73 6 -6 76 87 118 156 32 52 34 61 35 150
1 52 -2 86 -6 75 -7 -20 -7 -20 -12 0 -5 22 11 65 24 65 4 0 8 7 8 15 0 20 73
132 77 119 2 -6 26 -9 56 -7 l52 3 2 -59 c2 -66 41 -191 83 -266 16 -27 49
-71 73 -97 25 -25 43 -48 41 -51 -3 -2 5 -25 16 -51 l20 -47 -23 -8 c-57 -22
-254 -122 -272 -138 -11 -10 -30 -31 -42 -46 -15 -19 -24 -24 -29 -16 -4 7
-13 75 -19 153 -7 78 -13 116 -13 86 0 -30 3 -90 6 -132 4 -43 4 -78 -1 -78
-11 0 -49 21 -63 34 -6 6 -27 26 -48 44 -20 18 -35 36 -32 40 2 4 -4 8 -14 8
-10 0 -16 -5 -12 -11 3 -5 -1 -5 -9 2 -8 6 -38 11 -68 12 -54 0 -108 8 -126
20 -5 3 -12 6 -15 7 -28 5 -116 48 -145 70 -18 13 -20 28 -22 122 -2 111 -6
146 -21 166 -22 29 -4 86 45 146 7 8 26 33 43 55 33 42 108 123 274 295 56 58
116 125 135 150 l33 45 -38 -40 c-20 -22 -104 -110 -185 -195 -81 -85 -165
-175 -188 -200 -44 -49 -52 -41 -21 20 20 40 38 55 25 23 -5 -14 -4 -15 6 -6
10 10 9 15 -1 28 -8 10 -9 15 -1 15 6 0 11 6 11 13 0 7 9 23 19 34 11 12 17
23 15 26 -3 3 2 18 12 33 10 15 19 35 21 45 1 10 14 44 28 75 14 32 27 65 29
74 10 39 19 60 28 60 6 0 7 7 4 16 -5 12 -2 15 9 10 12 -4 14 -2 7 11 -11 18
11 49 27 39 5 -3 7 3 4 13 -3 13 7 32 30 57 l34 38 16 -31 c29 -54 147 -145
147 -112 0 5 -7 9 -15 9 -25 0 -135 113 -135 138 0 12 5 22 11 22 5 0 8 4 5 9
-3 5 3 20 14 34 11 14 20 30 20 35 0 9 16 43 33 70 13 20 47 15 47 -7z m248 3
c19 -34 -30 -126 -57 -109 -12 7 -5 78 11 108 11 22 34 22 46 1z m1734 -64
c-2 -30 -24 -59 -46 -60 -13 0 1 82 16 91 22 15 33 3 30 -31z m-66 -24 c-4
-20 -2 -37 4 -41 5 -3 10 -28 10 -54 0 -84 -43 -89 -57 -7 -3 20 -10 36 -14
36 -9 0 -3 -42 11 -70 9 -19 2 -40 -14 -40 -13 0 -58 92 -70 141 -6 30 14 64
34 57 8 -2 19 -20 26 -39 l12 -34 1 31 c1 35 17 54 44 54 16 0 18 -5 13 -34z
m-148 -30 c1 -6 5 -29 10 -52 8 -37 7 -40 -12 -39 -39 3 -77 106 -43 118 15 5
43 -12 45 -27z m308 -3 c10 -16 19 -38 20 -51 2 -13 9 -31 16 -40 11 -13 11
-14 0 -8 -11 6 -11 4 -3 -10 5 -11 14 -38 19 -60 9 -41 8 -42 -39 -88 -27 -26
-69 -56 -94 -67 -80 -35 -258 -58 -241 -31 2 4 -3 23 -11 42 -9 19 -15 41 -14
49 1 7 -2 10 -8 6 -6 -3 -11 1 -11 11 0 10 -3 15 -6 12 -3 -3 4 -37 16 -75 16
-54 19 -75 11 -96 -8 -20 -7 -46 3 -95 8 -37 19 -110 25 -162 6 -52 15 -110
21 -129 5 -19 9 -36 7 -37 -1 -1 -23 2 -49 7 -69 15 -76 29 -33 72 43 43 46
84 14 203 -15 57 -22 115 -24 209 -1 72 -6 155 -10 185 -6 46 -4 58 9 69 14
12 19 11 36 -4 11 -10 26 -15 36 -11 18 7 78 -50 68 -65 -6 -10 25 0 43 13 7
5 22 6 35 3 13 -4 20 -4 16 0 -4 4 0 14 8 23 11 10 14 28 12 56 -4 36 -1 44
26 68 41 36 78 36 102 1z m-373 -58 c-5 -13 -23 -22 -23 -11 0 15 14 35 21 31
4 -3 6 -12 2 -20z m-1309 -140 c-4 -8 -11 -15 -16 -15 -6 0 -5 6 2 15 7 8 14
15 16 15 2 0 1 -7 -2 -15z m-213 -295 c-22 -52 -28 -106 -17 -155 6 -28 4 -31
-22 -33 -49 -4 -47 33 7 167 32 80 47 109 49 93 2 -13 -6 -46 -17 -72z m1537
-95 c0 -16 -2 -15 -8 5 -11 34 -11 60 0 35 5 -11 8 -29 8 -40z m-20 -35 c17
-48 18 -60 7 -86 -19 -45 -67 -59 -90 -27 -11 15 -9 22 10 45 15 18 26 47 31
84 7 63 13 61 42 -16z m29 -22 c-3 -7 -5 -2 -5 12 0 14 2 19 5 13 2 -7 2 -19
0 -25z m-1627 -18 c0 -5 -7 -10 -16 -10 -8 0 -12 5 -9 10 3 6 10 10 16 10 5 0
9 -4 9 -10z m1660 -176 c28 -5 40 -12 44 -28 8 -34 -4 -64 -29 -70 -13 -3 -30
-8 -38 -12 -18 -6 -28 15 -37 79 -5 39 -4 47 8 42 7 -3 31 -8 52 -11z m-236
-219 c5 -17 -5 -25 -71 -55 -103 -47 -103 -47 -65 -15 40 33 83 115 84 159 1
30 2 29 23 -19 12 -27 25 -59 29 -70z m-7 -673 c-9 -9 -18 -29 -21 -44 -2 -14
-10 -36 -16 -48 -9 -17 -9 -21 0 -15 9 6 9 3 1 -13 -15 -28 -31 -32 -128 -32
l-85 0 124 84 c122 84 156 102 125 68z"/>
<path d="M1525 2398 c-16 -6 -43 -16 -60 -21 -42 -16 -192 -118 -247 -169 -69
-64 -152 -179 -202 -278 -25 -49 -46 -86 -49 -82 -2 4 -2 1 0 -6 1 -7 -6 -32
-17 -54 -11 -23 -18 -43 -16 -45 2 -2 31 53 65 123 34 69 75 147 93 172 54 80
109 142 120 135 7 -3 8 -1 4 5 -4 6 18 29 51 54 32 24 67 51 77 61 11 9 25 16
30 15 6 -2 11 1 11 5 0 13 83 58 114 62 29 3 71 21 71 30 0 6 -9 5 -45 -7z"/>
<path d="M1265 2320 c-10 -11 -21 -18 -25 -15 -4 2 -42 -35 -86 -82 -93 -101
-95 -103 -112 -125 -12 -15 -11 -16 11 -5 14 6 23 15 21 18 -2 4 4 13 13 20 9
8 46 48 83 89 66 74 90 92 90 68 0 -7 7 0 15 16 19 36 14 43 -10 16z"/>
<path d="M2053 2285 c0 -8 4 -12 9 -9 5 3 6 10 3 15 -9 13 -12 11 -12 -6z"/>
<path d="M1436 2263 c-6 -14 -5 -15 5 -6 7 7 10 15 7 18 -3 3 -9 -2 -12 -12z"/>
<path d="M1449 2214 c-5 -15 -7 -29 -4 -32 3 -3 5 0 5 6 0 7 5 12 10 12 6 0
10 -9 10 -20 0 -11 5 -20 10 -20 15 0 12 26 -5 40 -18 15 -20 35 -3 24 7 -4 8
-3 4 4 -11 18 -15 15 -27 -14z"/>
<path d="M1391 2198 c-34 -38 -72 -89 -97 -133 -9 -16 -31 -50 -48 -75 -17
-25 -46 -79 -63 -120 -18 -41 -40 -93 -49 -115 -10 -22 -18 -47 -19 -55 -1 -8
-14 -55 -28 -105 -14 -49 -28 -121 -31 -160 -5 -61 -4 -65 5 -32 13 42 29 49
29 12 0 -14 7 -41 15 -61 10 -25 12 -42 5 -60 -15 -38 -11 -53 5 -24 8 14 14
20 15 14 0 -11 101 -117 159 -166 37 -31 40 -48 9 -48 -18 0 -20 -2 -8 -10 10
-6 -2 -9 -39 -8 -44 0 -52 3 -47 16 3 10 -2 6 -12 -7 -9 -14 -18 -36 -18 -50
-1 -14 -2 -36 -3 -49 -1 -31 -14 -21 -56 41 -19 28 -35 46 -35 38 0 -40 155
-201 194 -201 39 0 50 17 15 24 -17 3 -47 16 -66 27 -33 21 -34 22 -31 83 3
59 4 61 28 57 37 -7 63 -5 84 4 16 7 18 5 14 -18 -3 -15 -1 -27 3 -27 5 0 9
25 9 55 0 30 2 55 5 55 3 0 23 -12 45 -26 36 -24 46 -26 125 -23 68 3 84 1 80
-9 -20 -52 -16 -112 6 -112 8 0 8 4 1 13 -6 6 -8 23 -5 37 4 23 8 25 44 22 21
-2 39 -8 39 -13 0 -5 -37 -47 -83 -94 -45 -47 -80 -85 -77 -85 2 0 -14 -18
-35 -40 -22 -22 -57 -46 -78 -52 -21 -6 -45 -21 -53 -32 -22 -32 -16 -42 10
-17 20 19 36 26 67 30 12 2 80 60 79 68 -1 13 152 163 161 157 5 -3 6 2 3 10
-3 8 1 25 10 38 23 33 21 37 -26 40 -30 2 -44 8 -46 19 -2 13 10 19 55 27 32
5 60 8 62 6 2 -2 -4 -14 -15 -26 -10 -13 3 -3 29 22 26 24 47 40 47 35 0 -5 7
1 16 13 8 12 19 20 24 17 5 -3 18 7 29 21 11 14 35 33 53 43 18 9 43 23 55 31
12 8 24 12 27 9 10 -10 36 -163 36 -209 0 -67 -11 -121 -23 -113 -6 3 -7 1 -3
-6 4 -6 -7 -35 -25 -64 -17 -28 -25 -46 -16 -38 9 7 28 34 43 59 22 38 29 63
32 127 5 86 -21 244 -42 258 -8 5 -5 12 8 22 17 13 18 18 6 58 -6 25 -10 79
-8 121 2 42 0 76 -5 76 -4 0 -6 4 -2 9 3 5 1 13 -5 16 -6 4 -17 21 -25 38 -11
23 -14 25 -11 9 4 -19 2 -21 -10 -11 -8 7 -12 19 -9 28 5 12 3 13 -5 5 -14
-14 -52 -6 -43 9 4 6 1 7 -7 2 -11 -7 -7 -13 15 -29 15 -12 42 -34 59 -51 29
-28 31 -33 32 -110 l1 -80 -63 -90 c-64 -93 -119 -146 -180 -171 -19 -8 -95
-20 -168 -26 l-134 -12 -73 44 c-91 53 -187 148 -219 215 -20 42 -25 69 -28
174 -5 155 14 243 58 266 16 8 31 10 36 5 5 -5 10 2 11 18 6 105 14 166 27
189 8 16 15 23 16 16 0 -6 3 -20 6 -30 4 -12 3 -14 -3 -6 -6 9 -12 7 -21 -7
-7 -12 -8 -20 -2 -20 6 0 7 -23 3 -60 -4 -42 -2 -60 6 -60 6 0 11 12 11 28 0
15 3 44 6 65 l7 37 67 0 67 0 16 -57 c17 -59 42 -101 53 -91 3 4 -2 20 -10 36
-15 30 -44 168 -51 247 l-4 40 9 -40 c24 -109 44 -176 73 -235 42 -86 42 -84
26 -75 -8 5 -10 4 -6 0 4 -5 14 -10 21 -11 7 -1 35 -12 62 -24 55 -25 46 -39
-10 -16 -20 8 -36 13 -36 10 0 -3 16 -12 36 -20 42 -18 79 -10 69 14 -4 10
-10 25 -12 35 -3 9 -9 17 -14 17 -5 0 -6 -7 -2 -16 5 -13 2 -15 -18 -9 -43 14
-75 43 -99 92 -13 26 -27 56 -32 66 -8 16 -6 17 12 7 13 -7 20 -7 20 0 0 5 -5
10 -11 10 -5 0 -7 4 -4 10 3 5 0 7 -9 4 -10 -4 -18 9 -29 48 -26 98 -38 176
-31 217 4 23 4 41 1 41 -3 0 -19 -15 -36 -32z m18 -43 c-6 -21 -9 -77 -7 -124
l3 -86 -62 -1 c-35 -1 -63 1 -63 3 0 26 127 260 135 251 3 -2 0 -22 -6 -43z
m-116 -144 c-10 -26 -19 -37 -24 -30 -6 10 31 83 38 75 2 -1 -5 -21 -14 -45z
m-84 -148 c-7 -21 -12 -46 -10 -55 1 -9 -7 -22 -18 -28 -27 -14 -26 -8 6 68
28 67 43 78 22 15z m-109 -350 c-1 -53 -3 -64 -11 -50 -10 17 -4 117 7 117 2
0 4 -30 4 -67z m876 -249 c-5 -14 -64 -54 -79 -54 -5 0 5 17 21 38 16 20 35
48 43 62 l14 25 3 -28 c2 -16 1 -35 -2 -43z"/>
<path d="M1342 2041 c-18 -32 -32 -62 -32 -67 0 -5 16 19 36 54 20 35 34 65
32 67 -2 2 -18 -22 -36 -54z"/>
<path d="M1970 2182 c0 -4 4 -12 9 -17 14 -16 49 -119 67 -195 8 -38 21 -129
29 -202 9 -93 13 -115 14 -73 1 78 -23 256 -45 331 -27 94 -74 193 -74 156z"/>
<path d="M1318 2161 c-9 -11 -22 -30 -28 -43 -11 -22 -11 -22 10 2 22 26 43
60 38 60 -2 0 -11 -9 -20 -19z"/>
<path d="M1513 2115 c0 -38 2 -53 4 -32 2 20 2 52 0 70 -2 17 -4 1 -4 -38z"/>
<path d="M1600 2123 c0 -53 12 -123 22 -123 5 0 7 3 5 8 -3 4 -8 36 -11 72 -8
69 -16 93 -16 43z"/>
<path d="M1873 2125 c7 -22 30 -107 32 -115 1 -3 5 -24 9 -47 4 -24 11 -43 16
-43 4 0 6 -10 2 -22 -3 -14 -2 -19 6 -14 8 5 12 -3 12 -26 0 -18 3 -44 7 -57
l6 -25 -34 22 c-41 25 -129 46 -141 34 -5 -5 9 -9 33 -10 26 -1 63 -13 93 -31
l51 -28 0 -81 c0 -50 4 -77 9 -72 5 5 8 37 7 72 -2 55 -1 60 13 49 9 -7 25
-29 37 -48 12 -19 24 -32 27 -29 5 6 -39 69 -68 97 -10 10 -20 42 -24 75 -9
77 -31 164 -63 244 -25 65 -41 93 -30 55z"/>
<path d="M1555 2100 c-3 -5 -1 -10 4 -10 6 0 11 5 11 10 0 6 -2 10 -4 10 -3 0
-8 -4 -11 -10z"/>
<path d="M1720 2037 c0 -36 4 -69 10 -72 6 -4 7 19 3 62 -8 89 -13 93 -13 10z"/>
<path d="M1472 2045 c0 -16 2 -22 5 -12 2 9 2 23 0 30 -3 6 -5 -1 -5 -18z"/>
<path d="M1671 2065 c1 -19 18 -51 18 -35 0 8 -4 22 -9 30 -5 8 -9 11 -9 5z"/>
<path d="M1570 2025 c0 -5 5 -17 10 -25 5 -8 10 -10 10 -5 0 6 -5 17 -10 25
-5 8 -10 11 -10 5z"/>
<path d="M1951 2004 c0 -11 3 -14 6 -6 3 7 2 16 -1 19 -3 4 -6 -2 -5 -13z"/>
<path d="M1210 1999 c0 -5 5 -7 10 -4 6 3 10 8 10 11 0 2 -4 4 -10 4 -5 0 -10
-5 -10 -11z"/>
<path d="M1717 1844 c5 -133 7 -146 17 -163 7 -11 4 -11 -14 -1 -12 6 -19 14
-16 17 3 3 -1 12 -9 20 -8 8 -19 22 -24 31 -5 9 -13 14 -17 10 -4 -4 1 -20 11
-35 17 -28 96 -106 100 -101 2 2 -3 31 -10 65 -7 33 -16 101 -20 150 -10 130
-24 135 -18 7z"/>
<path d="M1741 1929 c-2 -49 47 -215 83 -285 34 -66 35 -67 32 -31 -2 20 -11
46 -20 56 -9 9 -13 21 -9 26 5 4 3 5 -3 2 -12 -7 -35 58 -63 178 -11 44 -20
68 -20 54z"/>
<path d="M2231 1874 c0 -11 3 -14 6 -6 3 7 2 16 -1 19 -3 4 -6 -2 -5 -13z"/>
<path d="M1613 1817 c4 -10 7 -24 7 -31 0 -7 6 -13 14 -13 12 0 11 5 -2 26
-22 35 -26 40 -19 18z"/>
<path d="M2242 1775 c0 -16 2 -22 5 -12 2 9 2 23 0 30 -3 6 -5 -1 -5 -18z"/>
<path d="M1891 1770 c0 -14 7 -52 14 -85 l15 -60 -5 75 c-3 40 -10 79 -15 84
-7 7 -10 2 -9 -14z"/>
<path d="M1942 1725 c0 -16 2 -22 5 -12 2 9 2 23 0 30 -3 6 -5 -1 -5 -18z"/>
<path d="M1368 1640 c18 -4 41 -15 51 -24 22 -20 32 -21 25 -2 -6 17 -57 36
-88 35 -13 -1 -9 -4 12 -9z"/>
<path d="M2131 1624 c0 -11 3 -14 6 -6 3 7 2 16 -1 19 -3 4 -6 -2 -5 -13z"/>
<path d="M2195 1571 c4 -73 9 -91 22 -77 4 4 3 15 -3 24 -6 9 -8 29 -4 43 4
15 2 38 -5 55 -12 26 -13 22 -10 -45z"/>
<path d="M1238 1618 c-20 -5 -43 -17 -52 -27 -14 -16 -11 -17 49 -13 57 4 119
-5 167 -23 20 -8 18 36 -2 51 -22 17 -119 24 -162 12z"/>
<path d="M1020 1580 c-6 -12 -11 -43 -12 -70 0 -28 -4 -50 -10 -50 -5 0 -8
-10 -6 -22 7 -50 23 -18 26 51 2 41 8 83 13 93 5 10 7 18 5 18 -3 0 -10 -9
-16 -20z"/>
<path d="M2092 1560 c0 -19 2 -27 5 -17 2 9 2 25 0 35 -3 9 -5 1 -5 -18z"/>
<path d="M1714 1551 c4 -6 19 -11 34 -11 15 -1 38 -7 52 -15 37 -21 50 -18 15
4 -36 23 -112 40 -101 22z"/>
<path d="M1201 1498 c-14 -23 -14 -23 8 -4 22 20 25 26 13 26 -4 0 -13 -10
-21 -22z"/>
<path d="M1240 1501 c-6 -12 -7 -21 -1 -21 10 0 24 30 17 37 -2 3 -9 -5 -16
-16z"/>
<path d="M1709 1514 c-1 -2 -2 -7 -3 -11 -1 -5 -5 -14 -9 -20 -6 -9 -2 -13 13
-13 23 0 102 -38 162 -78 21 -14 40 -23 42 -21 10 10 -49 82 -87 106 -36 23
-115 47 -118 37z m105 -53 c4 -5 -3 -7 -14 -4 -23 6 -26 13 -6 13 8 0 17 -4
20 -9z"/>
<path d="M2571 1515 c2 -6 48 -98 103 -205 91 -181 126 -243 126 -228 0 10
-212 422 -223 433 -6 7 -8 7 -6 0z"/>
<path d="M1276 1501 c-4 -7 -5 -15 -2 -18 9 -9 19 4 14 18 -4 11 -6 11 -12 0z"/>
<path d="M2146 1497 c3 -10 9 -15 12 -12 3 3 0 11 -7 18 -10 9 -11 8 -5 -6z"/>
<path d="M853 1424 c-23 -50 -37 -98 -39 -129 l-3 -50 8 46 c10 55 53 151 47
106 -2 -15 1 -30 5 -33 5 -3 9 10 9 28 0 18 4 49 10 67 17 62 1 46 -37 -35z"/>
<path d="M1521 1444 c0 -11 3 -14 6 -6 3 7 2 16 -1 19 -3 4 -6 -2 -5 -13z"/>
<path d="M2192 1440 c0 -14 2 -19 5 -12 2 6 2 18 0 25 -3 6 -5 1 -5 -13z"/>
<path d="M2212 1440 c0 -14 2 -19 5 -12 2 6 2 18 0 25 -3 6 -5 1 -5 -13z"/>
<path d="M980 1339 c0 -54 23 -157 51 -227 31 -76 33 -59 3 23 -14 39 -23 80
-21 92 2 12 0 20 -4 17 -5 -3 -9 7 -9 23 -1 35 -11 107 -16 112 -2 2 -4 -16
-4 -40z"/>
<path d="M1716 1364 c-5 -14 -4 -15 9 -4 17 14 19 20 6 20 -5 0 -12 -7 -15
-16z"/>
<path d="M1755 1350 c-10 -11 -13 -20 -7 -20 6 0 16 9 22 20 6 11 9 20 7 20
-2 0 -12 -9 -22 -20z"/>
<path d="M864 1323 c2 -16 8 -49 11 -75 3 -27 10 -48 15 -48 5 0 4 15 -1 32
-5 18 -9 52 -9 75 0 24 -5 43 -11 43 -6 0 -8 -11 -5 -27z"/>
<path d="M1041 1274 c1 -43 5 -92 9 -109 4 -17 6 14 5 73 -1 56 -5 105 -9 109
-3 3 -5 -29 -5 -73z"/>
<path d="M1377 1332 c-20 -21 -22 -70 -5 -106 16 -36 90 -70 135 -63 52 9 83
42 83 89 0 35 -3 39 -47 62 -27 13 -71 27 -98 30 -43 6 -54 4 -68 -12z m98
-11 c17 -4 29 -11 28 -17 -1 -5 12 -10 29 -11 68 -2 64 -86 -7 -113 -67 -26
-155 32 -155 103 0 44 30 55 105 38z"/>
<path d="M1390 1280 c-11 -7 -6 -8 17 -4 38 7 100 -11 131 -39 26 -24 29 -18
5 10 -32 36 -120 55 -153 33z"/>
<path d="M1806 1325 c-3 -8 -1 -15 3 -15 5 0 11 7 15 15 3 8 1 15 -3 15 -5 0
-11 -7 -15 -15z"/>
<path d="M1086 1215 c-9 -26 -7 -32 5 -12 6 10 9 21 6 23 -2 3 -7 -2 -11 -11z"/>
<path d="M1150 1186 c0 -15 41 -66 53 -66 7 1 6 5 -3 13 -9 7 -24 23 -33 37
-9 13 -17 21 -17 16z"/>
<path d="M1068 1143 c-3 -21 -1 -47 3 -58 5 -13 8 -1 8 38 1 65 -5 75 -11 20z"/>
<path d="M1139 1142 c11 -16 28 -35 38 -43 9 -8 2 5 -17 29 -38 48 -52 57 -21
14z"/>
<path d="M2052 1130 c0 -14 2 -19 5 -12 2 6 2 18 0 25 -3 6 -5 1 -5 -13z"/>
<path d="M1225 1109 c-11 -17 1 -21 15 -4 8 9 8 15 2 15 -6 0 -14 -5 -17 -11z"/>
<path d="M2040 1095 c0 -5 5 -17 10 -25 5 -8 10 -10 10 -5 0 6 -5 17 -10 25
-5 8 -10 11 -10 5z"/>
<path d="M1417 999 c-9 -5 -22 -7 -29 -3 -7 5 -8 3 -3 -6 6 -10 4 -12 -8 -7
-8 3 -31 -2 -51 -13 -20 -10 -33 -13 -29 -6 3 6 3 8 -2 4 -4 -4 -15 -2 -23 4
-12 10 -19 7 -39 -16 -13 -16 -22 -31 -19 -34 3 -3 15 7 27 22 l21 26 19 -22
c17 -20 20 -21 31 -8 19 23 118 50 183 50 32 0 56 2 54 4 -11 10 -116 15 -132
5z"/>
<path d="M2230 1000 c0 -8 5 -22 10 -30 9 -13 10 -13 10 0 0 8 -5 22 -10 30
-9 13 -10 13 -10 0z"/>
<path d="M1964 969 c-76 -61 -179 -135 -198 -142 -10 -4 -26 -2 -35 5 -14 11
-14 11 -4 -3 7 -9 10 -19 6 -23 -4 -4 4 -3 19 3 33 12 114 68 188 129 74 61
75 62 68 62 -3 0 -23 -14 -44 -31z"/>
<path d="M2251 942 c-1 -7 6 -24 15 -37 11 -16 14 -35 10 -52 -4 -18 -3 -23 2
-15 6 9 13 -5 22 -46 15 -64 40 -82 40 -27 0 29 -51 142 -70 155 -4 3 -10 12
-13 20 -3 10 -6 11 -6 2z m69 -133 c6 -22 10 -45 8 -51 -2 -6 -11 14 -20 45
-8 31 -11 54 -7 51 5 -3 13 -23 19 -45z"/>
<path d="M1120 886 c0 -3 20 -19 45 -37 25 -18 45 -40 45 -49 0 -9 5 -21 12
-28 7 -7 8 -12 3 -12 -4 0 11 -14 34 -31 37 -26 41 -32 29 -47 -7 -9 -8 -13
-2 -9 13 8 29 -38 19 -53 -4 -6 -2 -10 3 -10 34 0 14 96 -27 130 -20 17 -31
37 -33 58 -1 17 -4 29 -7 27 -2 -3 -10 3 -17 13 -9 11 -13 13 -14 4 0 -9 -11
-5 -32 11 -41 30 -58 40 -58 33z m120 -97 c0 -6 -4 -7 -10 -4 -5 3 -10 11 -10
16 0 6 5 7 10 4 6 -3 10 -11 10 -16z"/>
<path d="M1280 821 c-22 -6 -20 -8 24 -20 27 -6 51 -10 53 -7 3 3 -6 8 -21 12
-14 3 -23 10 -20 15 6 10 0 10 -36 0z"/>
<path d="M1460 800 c-13 -8 -13 -10 2 -10 9 0 20 5 23 10 8 13 -5 13 -25 0z"/>
<path d="M1385 790 c3 -5 10 -10 16 -10 5 0 9 5 9 10 0 6 -7 10 -16 10 -8 0
-12 -4 -9 -10z"/>
<path d="M1598 793 c7 -3 16 -2 19 1 4 3 -2 6 -13 5 -11 0 -14 -3 -6 -6z"/>
<path d="M1665 780 c-3 -5 -2 -10 4 -10 5 0 13 5 16 10 3 6 2 10 -4 10 -5 0
-13 -4 -16 -10z"/>
<path d="M1915 770 c-16 -7 -17 -9 -3 -9 9 -1 20 4 23 9 7 11 7 11 -20 0z"/>
<path d="M2012 743 c-16 -21 -46 -68 -67 -105 -21 -37 -43 -64 -48 -61 -6 3
-7 1 -3 -6 10 -16 -28 -79 -111 -184 -64 -80 -109 -147 -100 -147 2 0 19 21
37 48 19 26 60 79 90 117 31 39 87 124 124 190 38 66 76 129 86 140 20 24 33
45 26 45 -2 0 -18 -17 -34 -37z"/>
<path d="M2417 743 c-18 -18 -5 -97 28 -177 7 -15 5 -17 -6 -11 -8 5 -11 5 -6
-1 5 -5 12 -9 16 -9 5 0 22 -15 39 -32 16 -18 34 -33 39 -33 6 0 -7 17 -27 38
-53 57 -75 107 -75 175 1 31 0 57 0 57 -1 0 -5 -3 -8 -7z"/>
<path d="M2126 648 c-50 -80 -146 -248 -152 -264 -3 -10 13 12 36 50 23 39 49
81 59 95 29 42 83 141 77 141 -3 0 -12 -10 -20 -22z"/>
<path d="M2341 644 c0 -11 3 -14 6 -6 3 7 2 16 -1 19 -3 4 -6 -2 -5 -13z"/>
<path d="M1498 573 c7 -3 16 -2 19 1 4 3 -2 6 -13 5 -11 0 -14 -3 -6 -6z"/>
<path d="M1669 479 c-4 -102 -6 -109 -40 -161 -38 -57 -99 -131 -152 -186 -27
-28 -37 -33 -67 -29 -25 3 -47 -2 -77 -20 -54 -30 -56 -17 -4 20 24 16 46 25
58 21 17 -5 17 -5 -1 10 -16 13 -18 20 -8 40 6 14 26 33 44 42 52 27 182 132
208 167 22 30 22 31 2 13 -22 -19 -22 -19 -22 11 0 16 4 43 9 59 14 44 22 102
12 84 -5 -8 -17 -57 -26 -108 -15 -77 -23 -97 -44 -113 -14 -11 -48 -38 -76
-59 -27 -22 -56 -40 -63 -40 -21 0 -62 -47 -62 -72 0 -15 -14 -32 -40 -51 -40
-28 -53 -57 -26 -57 8 0 18 5 21 11 11 17 58 32 99 30 35 -2 44 3 89 51 63 67
129 153 152 198 18 34 33 181 23 225 -2 11 -6 -28 -9 -86z"/>
<path d="M810 396 c0 -12 56 -103 92 -148 16 -21 27 -42 23 -48 -4 -6 -1 -9 5
-8 6 2 37 -24 68 -58 69 -73 57 -53 -21 36 -32 35 -55 70 -52 78 2 7 0 10 -5
7 -6 -3 -32 29 -60 72 -27 43 -50 74 -50 69z"/>
<path d="M1664 289 c-3 -6 -2 -15 3 -20 5 -5 9 -1 9 11 0 23 -2 24 -12 9z"/>
<path d="M650 1718 c0 -3 25 -8 55 -10 30 -1 55 0 55 4 0 3 -25 8 -55 10 -30
1 -55 0 -55 -4z"/>
<path d="M602 1070 c0 -14 2 -19 5 -12 2 6 2 18 0 25 -3 6 -5 1 -5 -13z"/>
<path d="M611 1035 c-2 -17 47 -246 74 -343 14 -51 25 -95 25 -98 0 -2 4 -4 9
-4 5 0 0 28 -10 62 -11 34 -28 100 -39 147 -47 201 -58 245 -59 236z"/>
<path d="M495 819 c-4 -6 -5 -12 -2 -15 2 -3 7 2 10 11 7 17 1 20 -8 4z"/>
<path d="M297 2242 c-10 -10 -17 -31 -17 -46 0 -23 -3 -27 -17 -21 -40 17 -73
17 -79 0 -18 -46 48 -96 150 -111 l49 -7 -5 80 c-3 44 -11 90 -17 102 -14 26
-42 27 -64 3z m52 -11 c6 -10 13 -48 17 -85 l7 -66 -39 0 c-66 1 -144 47 -144
85 0 7 47 3 80 -6 10 -3 16 5 18 26 4 29 27 65 43 65 5 0 13 -8 18 -19z"/>
</g>
</svg>
